<svg width="201" height="40" viewBox="0 0 201 40" fill="none" xmlns="http://www.w3.org/2000/svg">
<path d="M34.2535 25.5228C34.2535 26.4602 34.0745 27.3449 33.7164 28.1769C33.3688 28.9984 32.8844 29.7198 32.263 30.3412C31.6521 30.9521 30.9307 31.4365 30.0986 31.7946C29.2772 32.1422 28.3977 32.316 27.4604 32.316C26.6178 32.316 25.8069 32.1685 25.0275 31.8736C24.2587 31.5787 23.5636 31.1469 22.9422 30.5782C22.3208 31.1469 21.6204 31.5787 20.841 31.8736C20.0617 32.1685 19.2507 32.316 18.4082 32.316C17.4708 32.316 16.5861 32.1422 15.7541 31.7946C14.9326 31.4365 14.2112 30.9521 13.5898 30.3412C12.9789 29.7198 12.4944 28.9984 12.1364 28.1769C11.7888 27.3449 11.615 26.4602 11.615 25.5228V9.34572H16.149V25.5228C16.149 25.8388 16.207 26.139 16.3228 26.4233C16.4387 26.6971 16.5967 26.9394 16.7968 27.15C17.0074 27.3501 17.2496 27.5081 17.5235 27.624C17.7973 27.7398 18.0922 27.7977 18.4082 27.7977C18.7241 27.7977 19.019 27.7398 19.2928 27.624C19.5667 27.5081 19.8036 27.3501 20.0037 27.15C20.2144 26.9394 20.3776 26.6971 20.4935 26.4233C20.6093 26.139 20.6673 25.8388 20.6673 25.5228V9.34572H25.2013V25.5228C25.2013 25.8388 25.2592 26.139 25.3751 26.4233C25.4909 26.6971 25.6489 26.9394 25.849 27.15C26.0596 27.3501 26.3019 27.5081 26.5757 27.624C26.8495 27.7398 27.1444 27.7977 27.4604 27.7977C27.7763 27.7977 28.0712 27.7398 28.3451 27.624C28.6189 27.5081 28.8559 27.3501 29.056 27.15C29.2666 26.9394 29.4299 26.6971 29.5457 26.4233C29.6721 26.139 29.7353 25.8388 29.7353 25.5228V9.34572H34.2535V25.5228ZM42.8476 32H38.3136V9.34572H42.8476V32ZM51.5997 13.8797V22.9478H56.1337C56.7551 22.9478 57.3396 22.8319 57.8873 22.6002C58.4349 22.358 58.9141 22.0315 59.3249 21.6207C59.7356 21.21 60.0569 20.7308 60.2886 20.1831C60.5308 19.6249 60.6519 19.0351 60.6519 18.4137C60.6519 17.7924 60.5308 17.2078 60.2886 16.6602C60.0569 16.102 59.7356 15.6175 59.3249 15.2068C58.9141 14.796 58.4349 14.4748 57.8873 14.2431C57.3396 14.0008 56.7551 13.8797 56.1337 13.8797H51.5997ZM51.5997 32H47.0657V9.34572H56.1337C56.9657 9.34572 57.7662 9.4563 58.535 9.67747C59.3038 9.88811 60.02 10.1935 60.6835 10.5938C61.3576 10.9834 61.9684 11.4574 62.5161 12.0156C63.0743 12.5632 63.5482 13.1741 63.9379 13.8481C64.3381 14.5222 64.6435 15.2436 64.8542 16.0125C65.0753 16.7813 65.1859 17.5817 65.1859 18.4137C65.1859 19.1931 65.0859 19.9514 64.8858 20.6887C64.6962 21.4259 64.4171 22.1263 64.0485 22.7898C63.6904 23.4533 63.248 24.0642 62.7214 24.6223C62.1949 25.1805 61.6051 25.665 60.9521 26.0758L63.464 32H58.6456L56.6708 27.4344L51.5997 27.466V32ZM83.7011 32H68.1717V9.34572H83.7011V13.8797H72.7058V18.4137H80.1466V22.9478H72.7058V27.466H83.7011V32Z" fill="#2A2A2A"/>
<path d="M100.21 22.9478V18.4137C100.21 17.7924 100.089 17.2078 99.8467 16.6602C99.615 16.102 99.2937 15.6175 98.883 15.2068C98.4723 14.796 97.9878 14.4748 97.4296 14.2431C96.8819 14.0008 96.2974 13.8797 95.676 13.8797C95.0546 13.8797 94.4648 14.0008 93.9066 14.2431C93.359 14.4748 92.8798 14.796 92.469 15.2068C92.0583 15.6175 91.7318 16.102 91.4895 16.6602C91.2578 17.2078 91.142 17.7924 91.142 18.4137V22.9478H100.21ZM104.744 32H100.21V27.466H91.142V32H86.6238V18.4137C86.6238 17.1604 86.8607 15.9861 87.3347 14.8908C87.8086 13.7849 88.4511 12.8213 89.262 11.9998C90.0835 11.1783 91.0419 10.5306 92.1373 10.0566C93.2431 9.58268 94.4227 9.34572 95.676 9.34572C96.9293 9.34572 98.1036 9.58268 99.199 10.0566C100.305 10.5306 101.268 11.1783 102.09 11.9998C102.911 12.8213 103.559 13.7849 104.033 14.8908C104.507 15.9861 104.744 17.1604 104.744 18.4137V32ZM113.212 13.8797V22.9478H117.746C118.367 22.9478 118.952 22.8319 119.499 22.6002C120.047 22.358 120.526 22.0315 120.937 21.6207C121.348 21.21 121.669 20.7308 121.901 20.1831C122.143 19.6249 122.264 19.0351 122.264 18.4137C122.264 17.7924 122.143 17.2078 121.901 16.6602C121.669 16.102 121.348 15.6175 120.937 15.2068C120.526 14.796 120.047 14.4748 119.499 14.2431C118.952 14.0008 118.367 13.8797 117.746 13.8797H113.212ZM113.212 32H108.678V9.34572H117.746C118.578 9.34572 119.378 9.4563 120.147 9.67747C120.916 9.88811 121.632 10.1935 122.296 10.5938C122.97 10.9834 123.58 11.4574 124.128 12.0156C124.686 12.5632 125.16 13.1741 125.55 13.8481C125.95 14.5222 126.256 15.2436 126.466 16.0125C126.687 16.7813 126.798 17.5817 126.798 18.4137C126.798 19.1931 126.698 19.9514 126.498 20.6887C126.308 21.4259 126.029 22.1263 125.661 22.7898C125.302 23.4533 124.86 24.0642 124.334 24.6223C123.807 25.1805 123.217 25.665 122.564 26.0758L125.076 32H120.258L118.283 27.4344L113.212 27.466V32ZM145.313 32H129.784V9.34572H145.313V13.8797H134.318V18.4137H141.759V22.9478H134.318V27.466H145.313V32ZM166.609 32H161.759L153.023 17.0867V32H148.489V9.34572H153.339L162.075 24.2748V9.34572H166.609V32ZM184.16 22.9478V18.4137C184.16 17.7924 184.039 17.2078 183.797 16.6602C183.565 16.102 183.244 15.6175 182.833 15.2068C182.423 14.796 181.938 14.4748 181.38 14.2431C180.832 14.0008 180.248 13.8797 179.626 13.8797C179.005 13.8797 178.415 14.0008 177.857 14.2431C177.309 14.4748 176.83 14.796 176.419 15.2068C176.009 15.6175 175.682 16.102 175.44 16.6602C175.208 17.2078 175.092 17.7924 175.092 18.4137V22.9478H184.16ZM188.694 32H184.16V27.466H175.092V32H170.574V18.4137C170.574 17.1604 170.811 15.9861 171.285 14.8908C171.759 13.7849 172.401 12.8213 173.212 11.9998C174.034 11.1783 174.992 10.5306 176.088 10.0566C177.194 9.58268 178.373 9.34572 179.626 9.34572C180.88 9.34572 182.054 9.58268 183.149 10.0566C184.255 10.5306 185.219 11.1783 186.04 11.9998C186.862 12.8213 187.51 13.7849 187.984 14.8908C188.457 15.9861 188.694 17.1604 188.694 18.4137V32Z" fill="#007BFF"/>
<circle cx="4.21084" cy="11.1332" r="3.40042" stroke="#2A2A2A" stroke-width="1.62084"/>
<circle cx="4.21084" cy="4.21084" r="3.40042" transform="matrix(-1 0 0 1 200.375 25.4399)" stroke="#007BFF" stroke-width="1.62084"/>
<rect x="6.99219" y="8.97803" width="9.16327" height="4.31021" fill="#2A2A2A"/>
<rect width="9.11238" height="4.31021" transform="matrix(-1 0 0 1 193.283 27.4956)" fill="#007BFF"/>
</svg>
